<?xml version="1.0" encoding="UTF-8" standalone="no"?>
<svg
   version="1.0"
   width="711.000000pt"
   height="913.000000pt"
   viewBox="0 0 711.000000 913.000000"
   preserveAspectRatio="xMidYMid meet"
   id="svg22"
   sodipodi:docname="Marco2.svg"
   inkscape:version="1.3 (0e150ed6c4, 2023-07-21)"
   xmlns:inkscape="http://www.inkscape.org/namespaces/inkscape"
   xmlns:sodipodi="http://sodipodi.sourceforge.net/DTD/sodipodi-0.dtd"
   xmlns="http://www.w3.org/2000/svg"
   xmlns:svg="http://www.w3.org/2000/svg">
  <defs
     id="defs22" />
  <sodipodi:namedview
     id="namedview22"
     pagecolor="#ffffff"
     bordercolor="#000000"
     borderopacity="0.25"
     inkscape:showpageshadow="2"
     inkscape:pageopacity="0.0"
     inkscape:pagecheckerboard="0"
     inkscape:deskcolor="#d1d1d1"
     inkscape:document-units="pt"
     inkscape:zoom="0.51998905"
     inkscape:cx="474.04845"
     inkscape:cy="608.66667"
     inkscape:window-width="1920"
     inkscape:window-height="1009"
     inkscape:window-x="-8"
     inkscape:window-y="-8"
     inkscape:window-maximized="1"
     inkscape:current-layer="svg22" />
  <g
     transform="matrix(0.11223724,0,0,-0.09917563,-57.548253,912.82536)"
     fill="#000000"
     stroke="none"
     id="g22"
     style="fill:#7a9489;fill-opacity:1">
    <path
       d="m 1890,8941 c 0,-15 6,-21 21,-21 25,0 22,33 -4,38 -12,2 -17,-3 -17,-17 z"
       id="path1"
       style="fill:#7a9489;fill-opacity:1" />
    <path
       d="m 4250,8941 c 0,-21 26,-36 36,-20 9,15 -3,39 -21,39 -8,0 -15,-9 -15,-19 z"
       id="path2"
       style="fill:#7a9489;fill-opacity:1" />
    <path
       d="m 6613,8944 c -6,-16 15,-37 29,-28 4,3 8,14 8,25 0,23 -28,26 -37,3 z"
       id="path3"
       style="fill:#7a9489;fill-opacity:1" />
    <path
       d="m 720,8940 c -69,-3 134,-6 450,-6 344,0 519,2 435,7 -165,8 -706,8 -885,-1 z"
       id="path4"
       style="fill:#7a9489;fill-opacity:1" />
    <path
       d="m 1840,8940 c 0,-5 5,-10 10,-10 6,0 10,5 10,10 0,6 -4,10 -10,10 -5,0 -10,-4 -10,-10 z"
       id="path5"
       style="fill:#7a9489;fill-opacity:1" />
    <path
       d="m 1966,8941 c -4,-5 -2,-12 3,-15 5,-4 12,-2 15,3 4,5 2,12 -3,15 -5,4 -12,2 -15,-3 z"
       id="path6"
       style="fill:#7a9489;fill-opacity:1" />
    <path
       d="m 3070,8940 c -74,-3 133,-6 460,-6 381,-1 545,2 455,7 -153,8 -700,7 -915,-1 z"
       id="path7"
       style="fill:#7a9489;fill-opacity:1" />
    <path
       d="m 4330,8934 c 0,-8 5,-12 10,-9 6,4 8,11 5,16 -9,14 -15,11 -15,-7 z"
       id="path8"
       style="fill:#7a9489;fill-opacity:1" />
    <path
       d="m 5445,8940 c -71,-3 131,-6 450,-6 349,0 520,2 430,6 -177,9 -695,8 -880,0 z"
       id="path9"
       style="fill:#7a9489;fill-opacity:1" />
    <path
       d="m 6565,8941 c -3,-5 -1,-12 5,-16 5,-3 10,1 10,9 0,18 -6,21 -15,7 z"
       id="path10"
       style="fill:#7a9489;fill-opacity:1" />
    <path
       d="m 6690,8940 c 0,-5 5,-10 11,-10 5,0 7,5 4,10 -3,6 -8,10 -11,10 -2,0 -4,-4 -4,-10 z"
       id="path11"
       style="fill:#7a9489;fill-opacity:1" />
    <path
       d="m 1893,244 c -8,-20 8,-36 26,-25 15,10 8,41 -9,41 -6,0 -13,-7 -17,-16 z"
       id="path12"
       style="fill:#7a9489;fill-opacity:1" />
    <path
       d="m 4253,244 c -8,-21 13,-42 28,-27 13,13 5,43 -11,43 -6,0 -13,-7 -17,-16 z"
       id="path13"
       style="fill:#7a9489;fill-opacity:1" />
    <path
       d="m 6613,244 c -7,-18 11,-39 26,-30 17,11 13,46 -4,46 -9,0 -18,-7 -22,-16 z"
       id="path14"
       style="fill:#7a9489;fill-opacity:1" />
    <path
       d="m 890,240 c -308,-5 -269,-6 250,-6 338,-1 604,0 590,2 -53,7 -492,9 -840,4 z"
       id="path15"
       style="fill:#7a9489;fill-opacity:1" />
    <path
       d="m 1840,240 c 0,-5 5,-10 11,-10 5,0 7,5 4,10 -3,6 -8,10 -11,10 -2,0 -4,-4 -4,-10 z"
       id="path16"
       style="fill:#7a9489;fill-opacity:1" />
    <path
       d="m 1965,241 c -3,-5 -1,-12 5,-16 5,-3 10,1 10,9 0,18 -6,21 -15,7 z"
       id="path17"
       style="fill:#7a9489;fill-opacity:1" />
    <path
       d="m 4330,234 c 0,-8 5,-12 10,-9 6,4 8,11 5,16 -9,14 -15,11 -15,-7 z"
       id="path18"
       style="fill:#7a9489;fill-opacity:1" />
    <path
       d="m 5590,240 c -277,-4 -224,-6 270,-6 338,-1 604,0 590,2 -50,7 -523,9 -860,4 z"
       id="path19"
       style="fill:#7a9489;fill-opacity:1" />
    <path
       d="m 6565,241 c -3,-5 -1,-12 5,-16 5,-3 10,1 10,9 0,18 -6,21 -15,7 z"
       id="path20"
       style="fill:#7a9489;fill-opacity:1" />
    <path
       d="m 6690,234 c 0,-8 5,-12 10,-9 6,4 8,11 5,16 -9,14 -15,11 -15,-7 z"
       id="path21"
       style="fill:#7a9489;fill-opacity:1" />
    <path
       d="m 3202,233 c 170,-2 446,-2 615,0 170,1 31,2 -307,2 -338,0 -477,-1 -308,-2 z"
       id="path22"
       style="fill:#7a9489;fill-opacity:1" />
  </g>
</svg>
