<?xml version="1.0" encoding="UTF-8" standalone="no"?>
<svg
   version="1.0"
   width="621.000000pt"
   height="678.000000pt"
   viewBox="0 0 621.000000 678.000000"
   preserveAspectRatio="xMidYMid meet"
   id="svg18"
   sodipodi:docname="Marco1.svg"
   inkscape:version="1.3 (0e150ed6c4, 2023-07-21)"
   xmlns:inkscape="http://www.inkscape.org/namespaces/inkscape"
   xmlns:sodipodi="http://sodipodi.sourceforge.net/DTD/sodipodi-0.dtd"
   xmlns="http://www.w3.org/2000/svg"
   xmlns:svg="http://www.w3.org/2000/svg">
  <defs
     id="defs18" />
  <sodipodi:namedview
     id="namedview18"
     pagecolor="#ffffff"
     bordercolor="#000000"
     borderopacity="0.25"
     inkscape:showpageshadow="2"
     inkscape:pageopacity="0.0"
     inkscape:pagecheckerboard="0"
     inkscape:deskcolor="#d1d1d1"
     inkscape:document-units="pt"
     inkscape:zoom="0.70022124"
     inkscape:cx="413.44076"
     inkscape:cy="452"
     inkscape:window-width="1920"
     inkscape:window-height="1009"
     inkscape:window-x="-8"
     inkscape:window-y="-8"
     inkscape:window-maximized="1"
     inkscape:current-layer="svg18" />
  <g
     transform="translate(0.000000,678.000000) scale(0.100000,-0.100000)"
     fill="#000000"
     stroke="none"
     id="g18"
     style="fill:#7a9489;fill-opacity:1">
    <path
       d="M195 6648 c-27 -15 -35 -28 -35 -60 0 -18 8 -33 24 -44 59 -38 117 46 65 95 -26 24 -27 24 -54 9z"
       id="path1"
       style="fill:#7a9489;fill-opacity:1" />
    <path
       d="M518 6653 c-14 -4 -18 -14 -16 -51 l1 -47 4 43 4 42 2610 0 c1733 0 2609 3 2609 10 0 10 -5175 13 -5212 3z"
       id="path2"
       style="fill:#7a9489;fill-opacity:1" />
    <path
       d="M6012 6644 c-41 -28 -18 -104 32 -104 36 0 56 20 56 55 0 33 -27 65 -55 65 -6 0 -21 -7 -33 -16z"
       id="path3"
       style="fill:#7a9489;fill-opacity:1" />
    <path
       d="M5752 6593 c10 -66 45 -145 82 -185 30 -33 114 -88 135 -88 8 0 -8 12 -36 26 -94 46 -159 142 -170 250 -3 30 -9 54 -13 54 -4 0 -3 -26 2 -57z"
       id="path4"
       style="fill:#7a9489;fill-opacity:1" />
    <path
       d="M490 6538 c0 -8 -11 -36 -24 -61 -13 -26 -18 -42 -10 -36 17 14 49 97 40 106 -3 3 -6 0 -6 -9z"
       id="path5"
       style="fill:#7a9489;fill-opacity:1" />
    <path
       d="M395 6385 c-22 -19 -62 -44 -90 -55 -30 -12 -38 -18 -20 -15 39 8 103 46 134 79 34 36 24 32 -24 -9z"
       id="path6"
       style="fill:#7a9489;fill-opacity:1" />
    <path
       d="M6005 6311 c11 -5 35 -10 53 -10 l32 -1 0 -2914 0 -2915 -22 -4 c-20 -4 -19 -4 5 -6 l27 -1 0 2925 0 2925 -32 0 c-18 0 -44 3 -58 5 -22 5 -22 4 -5 -4z"
       id="path7"
       style="fill:#7a9489;fill-opacity:1" />
    <path
       d="M160 3385 l0 -2925 33 1 c30 2 30 2 5 6 l-28 4 0 2914 0 2914 43 4 42 4 -47 1 -48 2 0 -2925z"
       id="path8"
       style="fill:#7a9489;fill-opacity:1" />
    <path
       d="M286 442 c82 -29 131 -71 179 -152 15 -26 23 -34 19 -20 -9 34 -36 70 -83 113 -48 43 -84 62 -131 71 -26 4 -23 2 16 -12z"
       id="path9"
       style="fill:#7a9489;fill-opacity:1" />
    <path
       d="M5975 450 c-13 -5 -14 -9 -5 -9 8 0 24 4 35 9 13 5 14 9 5 9 -8 0 -24 -4 -35 -9z"
       id="path10"
       style="fill:#7a9489;fill-opacity:1" />
    <path
       d="M5903 419 c-46 -29 -41 -36 5 -8 46 28 47 29 36 29 -5 0 -24 -10 -41 -21z"
       id="path11"
       style="fill:#7a9489;fill-opacity:1" />
    <path
       d="M5827 353 c-29 -32 -67 -108 -66 -138 0 -11 8 4 18 33 10 29 32 70 50 92 37 46 36 52 -2 13z"
       id="path12"
       style="fill:#7a9489;fill-opacity:1" />
    <path
       d="M491 224 c0 -11 3 -14 6 -6 3 7 2 16 -1 19 -3 4 -6 -2 -5 -13z"
       id="path13"
       style="fill:#7a9489;fill-opacity:1" />
    <path
       d="M176 214 c-20 -20 -21 -68 -1 -84 21 -17 64 -16 82 3 9 8 16 27 16 42 0 47 -64 73 -97 39z"
       id="path14"
       style="fill:#7a9489;fill-opacity:1" />
    <path
       d="M6007 212 c-21 -23 -22 -66 -1 -82 20 -18 74 -17 85 1 14 22 10 66 -7 83 -21 21 -57 20 -77 -2z"
       id="path15"
       style="fill:#7a9489;fill-opacity:1" />
    <path
       d="M500 160 c0 -22 3 -40 8 -40 4 0 6 18 4 40 -2 22 -6 40 -8 40 -2 0 -4 -18 -4 -40z"
       id="path16"
       style="fill:#7a9489;fill-opacity:1" />
    <path
       d="M5748 155 c-2 -19 0 -35 4 -35 4 0 8 16 8 35 0 19 -2 35 -4 35 -2 0 -6 -16 -8 -35z"
       id="path17"
       style="fill:#7a9489;fill-opacity:1" />
    <path
       d="M540 120 c0 -7 872 -10 2596 -10 1727 0 2593 3 2589 10 -9 14 -5185 14 -5185 0z"
       id="path18"
       style="fill:#7a9489;fill-opacity:1" />
  </g>
</svg>
