<?xml version="1.0" encoding="UTF-8" standalone="no"?>
<svg
   version="1.0"
   width="657.000000pt"
   height="999.000000pt"
   viewBox="0 0 657.000000 999.000000"
   preserveAspectRatio="xMidYMid meet"
   id="svg126"
   sodipodi:docname="Marco3.svg"
   inkscape:version="1.3 (0e150ed6c4, 2023-07-21)"
   xmlns:inkscape="http://www.inkscape.org/namespaces/inkscape"
   xmlns:sodipodi="http://sodipodi.sourceforge.net/DTD/sodipodi-0.dtd"
   xmlns="http://www.w3.org/2000/svg"
   xmlns:svg="http://www.w3.org/2000/svg">
  <defs
     id="defs126" />
  <sodipodi:namedview
     id="namedview126"
     pagecolor="#ffffff"
     bordercolor="#000000"
     borderopacity="0.25"
     inkscape:showpageshadow="2"
     inkscape:pageopacity="0.0"
     inkscape:pagecheckerboard="0"
     inkscape:deskcolor="#d1d1d1"
     inkscape:document-units="pt"
     inkscape:zoom="0.47522523"
     inkscape:cx="274.60664"
     inkscape:cy="564.99526"
     inkscape:window-width="1920"
     inkscape:window-height="1009"
     inkscape:window-x="-8"
     inkscape:window-y="-8"
     inkscape:window-maximized="1"
     inkscape:current-layer="svg126" />
  <g
     transform="translate(0.000000,999.000000) scale(0.100000,-0.100000)"
     fill="#000000"
     stroke="none"
     id="g126"
     style="fill:#7a9489;fill-opacity:1">
    <path
       d="M1208 9810 c-72 -19 -141 -55 -172 -89 -25 -27 -36 -27 -36 2 0 24 -17 47 -35 47 -5 0 -2 -5 8 -11 11 -6 17 -22 17 -44 0 -42 -53 -106 -113 -136 -21 -11 -37 -23 -34 -25 10 -10 82 44 142 105 33 34 81 76 107 92 97 63 95 63 748 69 l595 6 -580 1 c-528 1 -586 0 -647 -17z"
       id="path1"
       style="fill:#7a9489;fill-opacity:1" />
    <path
       d="M4295 9823 c249 -6 1095 -8 1073 -1 -13 3 -284 5 -603 5 -319 -1 -530 -3 -470 -4z"
       id="path2"
       style="fill:#7a9489;fill-opacity:1" />
    <path
       d="M231 9783 c2 -35 2 -35 6 -8 3 16 10 33 16 37 8 5 6 8 -5 8 -14 0 -18 -8 -17 -37z"
       id="path3"
       style="fill:#7a9489;fill-opacity:1" />
    <path
       d="M6320 9805 c-44 -17 -30 -19 21 -3 22 6 41 9 44 6 8 -8 -24 -116 -49 -166 -31 -62 -88 -117 -140 -137 -30 -11 -33 -14 -11 -9 92 17 183 141 210 287 7 34 5 37 -16 36 -13 0 -40 -7 -59 -14z"
       id="path4"
       style="fill:#7a9489;fill-opacity:1" />
    <path
       d="M290 9800 c34 -11 60 -11 35 0 -11 5 -29 8 -40 8 -16 0 -15 -2 5 -8z"
       id="path5"
       style="fill:#7a9489;fill-opacity:1" />
    <path
       d="M5435 9796 c72 -23 109 -48 195 -132 86 -83 155 -128 215 -140 19 -3 38 -15 44 -27 7 -13 9 -15 7 -4 -5 14 2 17 42 19 l47 1 -49 6 c-37 4 -51 11 -57 26 -7 18 -8 18 -8 1 -1 -15 -6 -17 -28 -12 -53 13 -128 59 -172 104 -40 41 -43 48 -38 85 4 27 2 36 -4 26 -5 -7 -9 -22 -9 -31 0 -25 -13 -22 -41 8 -27 30 -134 84 -164 83 -11 0 -2 -6 20 -13z"
       id="path6"
       style="fill:#7a9489;fill-opacity:1" />
    <path
       d="M350 9785 c0 -2 19 -13 43 -23 53 -24 103 -66 123 -104 9 -16 18 -27 21 -24 13 13 -66 96 -118 125 -55 30 -69 36 -69 26z"
       id="path7"
       style="fill:#7a9489;fill-opacity:1" />
    <path
       d="M1957 9782 c-17 -7 -16 -9 6 -21 30 -16 72 -11 72 9 0 17 -48 24 -78 12z"
       id="path8"
       style="fill:#7a9489;fill-opacity:1" />
    <path
       d="M4590 9780 c-13 -9 -13 -11 0 -20 8 -5 24 -10 35 -10 11 0 27 5 35 10 13 9 13 11 0 20 -8 5 -24 10 -35 10 -11 0 -27 -5 -35 -10z"
       id="path9"
       style="fill:#7a9489;fill-opacity:1" />
    <path
       d="M6215 9765 c-84 -43 -123 -90 -149 -179 -10 -33 -18 -43 -46 -53 -37 -13 -13 -16 30 -4 19 5 25 14 27 45 2 40 38 109 71 139 11 10 46 31 78 47 33 16 55 29 49 30 -5 0 -32 -11 -60 -25z"
       id="path10"
       style="fill:#7a9489;fill-opacity:1" />
    <path
       d="M648 9773 c6 -2 18 -2 25 0 6 3 1 5 -13 5 -14 0 -19 -2 -12 -5z"
       id="path11"
       style="fill:#7a9489;fill-opacity:1" />
    <path
       d="M4728 9773 c12 -2 30 -2 40 0 9 3 -1 5 -23 4 -22 0 -30 -2 -17 -4z"
       id="path12"
       style="fill:#7a9489;fill-opacity:1" />
    <path
       d="M4908 9773 c50 -2 134 -2 185 0 50 1 9 3 -93 3 -102 0 -143 -2 -92 -3z"
       id="path13"
       style="fill:#7a9489;fill-opacity:1" />
    <path
       d="M700 9760 c8 -6 24 -15 35 -21 16 -8 15 -6 -4 10 -13 12 -28 21 -35 21 -6 0 -4 -5 4 -10z"
       id="path14"
       style="fill:#7a9489;fill-opacity:1" />
    <path
       d="M910 9754 c0 -17 22 -14 28 4 2 7 -3 12 -12 12 -9 0 -16 -7 -16 -16z"
       id="path15"
       style="fill:#7a9489;fill-opacity:1" />
    <path
       d="M1290 9760 c-15 -5 1 -6 40 -3 36 3 67 7 69 9 8 7 -84 2 -109 -6z"
       id="path16"
       style="fill:#7a9489;fill-opacity:1" />
    <path
       d="M5280 9760 c85 -12 174 -43 219 -76 l36 -27 -26 27 c-34 36 -147 76 -229 81 l-65 4 65 -9z"
       id="path17"
       style="fill:#7a9489;fill-opacity:1" />
    <path
       d="M5686 9755 c4 -8 10 -15 15 -15 5 0 9 7 9 15 0 8 -7 15 -15 15 -9 0 -12 -6 -9 -15z"
       id="path18"
       style="fill:#7a9489;fill-opacity:1" />
    <path
       d="M5899 9753 c-12 -16 -12 -17 1 -7 8 6 22 14 30 17 13 5 12 6 -1 6 -9 1 -23 -7 -30 -16z"
       id="path19"
       style="fill:#7a9489;fill-opacity:1" />
    <path
       d="M6018 9742 c15 -15 29 -26 31 -25 6 4 -41 53 -50 53 -4 0 4 -13 19 -28z"
       id="path20"
       style="fill:#7a9489;fill-opacity:1" />
    <path
       d="M574 9714 c-8 -20 -13 -38 -11 -40 2 -2 11 14 20 36 19 50 12 53 -9 4z"
       id="path21"
       style="fill:#7a9489;fill-opacity:1" />
    <path
       d="M1194 9734 c-22 -8 -56 -28 -75 -45 l-34 -30 36 25 c20 15 61 35 90 45 30 11 47 20 39 19 -8 0 -33 -6 -56 -14z"
       id="path22"
       style="fill:#7a9489;fill-opacity:1" />
    <path
       d="M241 9735 c1 -19 18 -51 18 -35 0 8 -4 22 -9 30 -5 8 -9 11 -9 5z"
       id="path23"
       style="fill:#7a9489;fill-opacity:1" />
    <path
       d="M5862 9715 c-7 -14 -11 -45 -11 -68 l2 -42 7 50 c4 28 10 58 14 68 5 9 6 17 4 17 -3 0 -10 -11 -16 -25z"
       id="path24"
       style="fill:#7a9489;fill-opacity:1" />
    <path
       d="M350 9689 c0 -24 51 -79 74 -79 9 0 23 -11 32 -25 9 -14 21 -22 26 -19 9 6 57 -13 68 -27 7 -9 106 -29 144 -29 l32 0 -10 -45 c-10 -45 -19 -54 -31 -35 -3 6 -17 10 -30 10 -32 0 -50 -32 -35 -61 15 -26 12 -29 -39 -32 -44 -2 -45 -4 -55 -72 -4 -28 -3 -34 4 -20 5 11 9 30 9 43 1 27 40 45 77 36 31 -8 64 -49 65 -83 0 -14 3 -20 6 -13 8 21 -6 60 -30 83 l-22 22 38 -6 c50 -8 64 -21 78 -71 20 -74 73 -125 147 -141 30 -6 32 -5 32 20 0 69 -59 137 -137 158 -25 6 -49 20 -54 30 -6 9 -14 15 -20 12 -5 -4 -19 -3 -31 1 -21 6 -21 7 -3 20 15 11 21 11 28 1 5 -7 6 -2 3 16 -4 15 -2 27 4 27 5 0 10 -4 10 -9 0 -5 7 -11 15 -15 11 -4 9 3 -6 24 -18 24 -20 35 -13 61 9 33 16 38 74 64 19 8 27 13 17 10 -69 -19 -67 -20 -62 16 l5 34 -13 -35 -14 -35 -65 1 c-72 2 -108 16 -108 42 0 14 -2 15 -10 2 -8 -13 -13 -12 -42 4 -50 29 -65 44 -71 74 -3 16 -18 34 -35 45 -39 22 -52 22 -52 -4z"
       id="path25"
       style="fill:#7a9489;fill-opacity:1" />
    <path
       d="M6211 9684 c-17 -14 -31 -34 -31 -43 0 -19 -31 -52 -68 -71 -13 -6 -21 -14 -18 -17 3 -3 12 0 20 6 8 7 19 10 25 7 5 -4 18 4 28 18 10 13 28 26 39 30 26 8 60 44 69 74 9 31 -24 30 -64 -4z"
       id="path26"
       style="fill:#7a9489;fill-opacity:1" />
    <path
       d="M760 9650 c0 -29 3 -51 6 -48 7 8 8 88 0 95 -3 4 -6 -18 -6 -47z"
       id="path27"
       style="fill:#7a9489;fill-opacity:1" />
    <path
       d="M6050 9684 c0 -10 -7 -32 -15 -48 -13 -24 -13 -27 -1 -17 16 14 31 69 22 78 -3 4 -6 -2 -6 -13z"
       id="path28"
       style="fill:#7a9489;fill-opacity:1" />
    <path
       d="M260 9674 c0 -6 17 -37 38 -70 39 -60 116 -115 158 -113 14 0 12 3 -6 8 -71 22 -121 64 -164 141 -14 25 -26 40 -26 34z"
       id="path29"
       style="fill:#7a9489;fill-opacity:1" />
    <path
       d="M570 9654 c0 -6 7 -19 16 -30 14 -18 14 -18 3 6 -14 31 -19 36 -19 24z"
       id="path30"
       style="fill:#7a9489;fill-opacity:1" />
    <path
       d="M682 9633 c3 -26 1 -28 -34 -28 -20 0 -34 -3 -31 -7 9 -16 60 -7 82 13 24 23 23 42 -3 47 -13 3 -16 -2 -14 -25z"
       id="path31"
       style="fill:#7a9489;fill-opacity:1" />
    <path
       d="M5907 9648 c-5 -16 10 -48 24 -48 6 0 8 4 4 9 -3 5 -1 12 4 16 13 8 2 35 -14 35 -7 0 -15 -6 -18 -12z"
       id="path32"
       style="fill:#7a9489;fill-opacity:1" />
    <path
       d="M541 9604 c0 -11 3 -14 6 -6 3 7 2 16 -1 19 -3 4 -6 -2 -5 -13z"
       id="path33"
       style="fill:#7a9489;fill-opacity:1" />
    <path
       d="M5861 9584 c0 -11 3 -14 6 -6 3 7 2 16 -1 19 -3 4 -6 -2 -5 -13z"
       id="path34"
       style="fill:#7a9489;fill-opacity:1" />
    <path
       d="M5963 9593 c9 -2 25 -2 35 0 9 3 1 5 -18 5 -19 0 -27 -2 -17 -5z"
       id="path35"
       style="fill:#7a9489;fill-opacity:1" />
    <path
       d="M495 9523 c13 -25 13 -29 -3 -35 -14 -6 -14 -7 4 -7 18 -1 24 -10 32 -48 l11 -48 -5 47 c-4 39 -2 47 13 51 14 4 13 5 -5 6 -14 1 -26 10 -32 25 -5 13 -13 27 -19 30 -6 4 -4 -6 4 -21z"
       id="path36"
       style="fill:#7a9489;fill-opacity:1" />
    <path
       d="M6115 9520 c-10 -19 -24 -30 -38 -31 -17 -1 -18 -2 -4 -6 15 -4 17 -13 13 -66 -5 -60 -5 -60 4 -13 12 68 17 76 42 77 17 1 18 2 6 6 -21 5 -22 16 -8 44 6 10 8 19 6 19 -3 0 -12 -13 -21 -30z"
       id="path37"
       style="fill:#7a9489;fill-opacity:1" />
    <path
       d="M343 9459 c-46 -13 -68 -58 -53 -105 6 -18 21 -41 33 -49 27 -19 108 -18 162 1 22 7 29 11 15 8 -14 -3 -54 -8 -90 -11 -59 -5 -67 -3 -87 18 -33 37 -38 70 -13 102 28 36 91 38 114 5 16 -22 23 -14 8 8 -7 10 -47 35 -54 33 -2 0 -18 -5 -35 -10z"
       id="path38"
       style="fill:#7a9489;fill-opacity:1" />
    <path
       d="M5901 9452 c-2 -43 -30 -72 -71 -72 -25 0 -40 5 -44 16 -10 26 -7 35 11 32 10 -2 19 4 21 15 4 20 -18 23 -36 5 -7 -7 -12 -21 -12 -33 0 -30 19 -45 59 -45 22 0 43 8 59 23 l24 22 -7 -30 c-5 -22 -4 -26 4 -15 9 13 12 13 27 -1 15 -16 15 -17 -6 -24 -12 -4 -24 -4 -27 -1 -4 3 -12 -2 -19 -12 -7 -10 -32 -24 -56 -31 -83 -25 -138 -87 -138 -156 0 -25 2 -26 33 -20 75 17 130 67 149 140 13 47 47 75 93 75 l28 0 -27 -21 c-14 -11 -26 -26 -26 -32 0 -6 7 -2 15 9 8 12 27 27 43 33 42 18 73 2 89 -45 7 -21 11 -28 8 -14 -3 14 -5 35 -5 47 0 18 -8 22 -49 28 -49 7 -49 7 -38 35 8 22 8 32 -2 44 -16 19 -52 21 -69 4 -9 -9 -12 -8 -16 3 -13 41 -14 43 -15 21z"
       id="path39"
       style="fill:#7a9489;fill-opacity:1" />
    <path
       d="M6230 9463 c-31 -12 -50 -37 -50 -68 0 -36 22 -60 46 -51 22 8 11 31 -15 30 -16 0 -21 5 -21 26 0 30 16 50 42 50 10 0 18 5 18 10 0 6 -1 10 -2 9 -2 0 -10 -3 -18 -6z"
       id="path40"
       style="fill:#7a9489;fill-opacity:1" />
    <path
       d="M802 9443 c2 -11 11 -17 22 -15 13 2 17 -2 14 -20 -2 -17 -11 -25 -38 -30 l-35 -6 34 1 c40 2 57 23 47 60 -7 31 -50 40 -44 10z"
       id="path41"
       style="fill:#7a9489;fill-opacity:1" />
    <path
       d="M6284 9445 c36 -19 47 -19 22 0 -11 8 -27 15 -35 15 -9 0 -3 -7 13 -15z"
       id="path42"
       style="fill:#7a9489;fill-opacity:1" />
    <path
       d="M6327 9373 c-3 -18 -16 -42 -28 -54 -19 -19 -29 -21 -93 -17 -40 3 -62 2 -51 -3 29 -11 113 -11 136 1 23 13 51 65 47 88 -2 10 -7 4 -11 -15z"
       id="path43"
       style="fill:#7a9489;fill-opacity:1" />
    <path
       d="M386 9372 c-3 -4 -1 -14 4 -22 7 -11 14 -12 27 -4 9 6 18 15 20 20 4 12 -44 17 -51 6z"
       id="path44"
       style="fill:#7a9489;fill-opacity:1" />
    <path
       d="M6100 9320 c0 -6 7 -10 15 -10 8 0 15 2 15 4 0 2 -7 6 -15 10 -8 3 -15 1 -15 -4z"
       id="path45"
       style="fill:#7a9489;fill-opacity:1" />
    <path
       d="M5931 9258 c-1 -23 20 -68 32 -68 5 0 4 6 -2 14 -7 8 -16 27 -21 43 -4 15 -9 20 -9 11z"
       id="path46"
       style="fill:#7a9489;fill-opacity:1" />
    <path
       d="M574 9236 c-6 -16 11 -46 25 -46 4 0 7 12 6 27 0 30 -22 43 -31 19z"
       id="path47"
       style="fill:#7a9489;fill-opacity:1" />
    <path
       d="M6024 9236 c-3 -8 -3 -20 1 -26 3 -5 1 -10 -6 -10 -7 0 -10 -2 -7 -5 11 -11 38 8 38 25 0 24 -18 36 -26 16z"
       id="path48"
       style="fill:#7a9489;fill-opacity:1" />
    <path
       d="M6100 9227 c0 -7 7 -22 15 -33 13 -17 14 -16 4 14 -11 33 -19 41 -19 19z"
       id="path49"
       style="fill:#7a9489;fill-opacity:1" />
    <path
       d="M506 9215 c-9 -26 -7 -32 5 -12 6 10 9 21 6 23 -2 3 -7 -2 -11 -11z"
       id="path50"
       style="fill:#7a9489;fill-opacity:1" />
    <path
       d="M461 9134 c-44 -60 -101 -98 -141 -92 -17 3 -27 1 -23 -3 4 -4 19 -9 32 -11 l24 -3 -25 -30 c-25 -30 -68 -107 -68 -122 0 -4 14 16 30 46 16 29 65 91 109 136 43 45 84 92 90 104 19 35 7 24 -28 -25z"
       id="path51"
       style="fill:#7a9489;fill-opacity:1" />
    <path
       d="M6140 9151 c5 -11 15 -23 21 -27 6 -3 3 5 -6 20 -20 30 -30 35 -15 7z"
       id="path52"
       style="fill:#7a9489;fill-opacity:1" />
    <path
       d="M267 9143 c-10 -10 -8 -66 3 -83 7 -11 8 -5 3 19 -4 26 -2 36 11 43 9 5 14 13 11 19 -7 11 -19 12 -28 2z"
       id="path53"
       style="fill:#7a9489;fill-opacity:1" />
    <path
       d="M6330 9138 c0 -7 9 -19 20 -25 17 -12 18 -11 11 9 -9 25 -31 36 -31 16z"
       id="path54"
       style="fill:#7a9489;fill-opacity:1" />
    <path
       d="M6237 9040 c40 -40 83 -93 97 -122 14 -29 26 -45 26 -36 0 9 -20 46 -44 82 l-44 66 27 0 c15 0 35 8 44 18 24 26 21 36 -3 12 -31 -31 -74 -26 -119 15 -69 63 -58 37 16 -35z"
       id="path55"
       style="fill:#7a9489;fill-opacity:1" />
    <path
       d="M370 8948 c-23 -35 -34 -54 -24 -43 44 49 56 65 48 65 -5 0 -16 -10 -24 -22z"
       id="path56"
       style="fill:#7a9489;fill-opacity:1" />
    <path
       d="M6240 8953 c6 -10 22 -36 35 -58 14 -22 25 -35 25 -29 0 12 -57 104 -65 104 -3 0 -1 -8 5 -17z"
       id="path57"
       style="fill:#7a9489;fill-opacity:1" />
    <path
       d="M326 8875 c-9 -26 -7 -32 5 -12 6 10 9 21 6 23 -2 3 -7 -2 -11 -11z"
       id="path58"
       style="fill:#7a9489;fill-opacity:1" />
    <path
       d="M241 8810 c-6 -28 -10 -68 -10 -88 1 -30 3 -27 9 18 4 30 10 70 14 88 4 17 5 32 3 32 -3 0 -10 -23 -16 -50z"
       id="path59"
       style="fill:#7a9489;fill-opacity:1" />
    <path
       d="M6366 8835 c8 -37 14 -45 14 -19 0 10 -5 26 -10 34 -8 11 -9 7 -4 -15z"
       id="path60"
       style="fill:#7a9489;fill-opacity:1" />
    <path
       d="M6306 8825 c21 -107 24 -205 23 -685 -1 -379 2 -535 9 -538 17 -5 26 46 13 71 -7 15 -12 189 -14 557 -2 474 -5 540 -20 580 -10 28 -15 34 -11 15z"
       id="path61"
       style="fill:#7a9489;fill-opacity:1" />
    <path
       d="M306 8814 c-4 -14 -5 -28 -3 -31 3 -2 8 8 11 23 4 14 5 28 3 31 -3 2 -8 -8 -11 -23z"
       id="path62"
       style="fill:#7a9489;fill-opacity:1" />
    <path
       d="M6388 8085 c1 -390 4 -744 5 -785 2 -41 3 254 4 655 1 402 -2 755 -5 785 -4 30 -6 -264 -4 -655z"
       id="path63"
       style="fill:#7a9489;fill-opacity:1" />
    <path
       d="M286 8714 c-3 -26 -6 -267 -6 -536 0 -315 -4 -496 -10 -508 -13 -24 -3 -70 15 -70 18 0 28 46 15 71 -8 14 -10 185 -8 554 2 294 2 535 2 535 -1 0 -4 -21 -8 -46z"
       id="path64"
       style="fill:#7a9489;fill-opacity:1" />
    <path
       d="M6395 2010 c0 -393 1 -554 2 -357 2 196 2 518 0 715 -1 196 -2 35 -2 -358z"
       id="path65"
       style="fill:#7a9489;fill-opacity:1" />
    <path
       d="M222 2360 c0 -14 2 -19 5 -12 2 6 2 18 0 25 -3 6 -5 1 -5 -13z"
       id="path66"
       style="fill:#7a9489;fill-opacity:1" />
    <path
       d="M269 2329 c-8 -16 -8 -31 0 -58 7 -24 12 -211 14 -556 3 -460 6 -527 21 -580 10 -33 21 -64 26 -68 4 -5 -2 22 -13 60 -20 64 -21 95 -25 597 -2 379 0 536 8 551 8 15 8 29 1 48 -13 33 -17 33 -32 6z"
       id="path67"
       style="fill:#7a9489;fill-opacity:1" />
    <path
       d="M6330 2345 c-4 -56 -4 -1172 0 -1168 3 2 8 248 11 546 3 298 9 553 13 567 5 17 2 32 -8 45 -8 11 -16 16 -16 10z"
       id="path68"
       style="fill:#7a9489;fill-opacity:1" />
    <path
       d="M6386 1231 c-4 -35 -5 -65 -2 -68 6 -7 19 103 14 119 -3 7 -8 -16 -12 -51z"
       id="path69"
       style="fill:#7a9489;fill-opacity:1" />
    <path
       d="M233 1215 c0 -27 2 -38 4 -22 2 15 2 37 0 50 -2 12 -4 0 -4 -28z"
       id="path70"
       style="fill:#7a9489;fill-opacity:1" />
    <path
       d="M241 1149 c-2 -35 31 -119 68 -171 21 -31 70 -87 108 -124 54 -53 75 -83 92 -127 26 -73 28 -102 4 -92 -10 3 -31 9 -48 11 -34 6 57 -28 123 -46 38 -10 41 -13 31 -31 -8 -16 -7 -26 6 -46 16 -24 26 -25 66 -9 13 6 18 0 23 -26 3 -18 7 -37 8 -43 2 -5 -22 -13 -52 -16 l-55 -6 62 -1 c49 -2 62 -5 66 -20 4 -16 5 -16 6 1 1 21 15 18 90 -14 24 -11 46 -18 48 -15 4 4 -82 42 -118 51 -52 13 -59 108 -10 134 29 16 68 13 75 -5 10 -26 7 -34 -15 -34 -14 0 -19 -5 -17 -18 4 -22 28 -22 42 0 7 11 7 26 0 45 -12 37 -56 43 -95 14 -37 -27 -39 -27 -30 7 15 49 34 70 70 77 77 14 141 82 141 149 0 34 -29 35 -90 4 -45 -23 -52 -33 -104 -148 -7 -14 -28 -30 -49 -39 -43 -16 -61 -8 -29 15 12 8 22 20 22 26 0 7 -9 2 -20 -10 -48 -51 -113 -38 -123 25 -11 68 -57 143 -142 230 -84 87 -118 140 -140 222 -7 25 -14 39 -14 30z m479 -546 c0 -5 -4 -14 -9 -22 -8 -13 -12 -13 -26 -1 -16 13 -16 15 2 21 24 10 33 10 33 2z"
       id="path71"
       style="fill:#7a9489;fill-opacity:1" />
    <path
       d="M6301 1117 c-8 -26 -27 -69 -43 -95 -26 -42 -26 -44 -4 -20 25 28 69 133 63 151 -2 6 -9 -10 -16 -36z"
       id="path72"
       style="fill:#7a9489;fill-opacity:1" />
    <path
       d="M6366 1119 c-8 -42 0 -50 9 -9 4 17 5 34 2 36 -2 3 -7 -10 -11 -27z"
       id="path73"
       style="fill:#7a9489;fill-opacity:1" />
    <path
       d="M6335 1029 c-18 -39 -66 -92 -154 -169 -30 -27 -47 -54 -70 -118 -17 -46 -31 -91 -31 -102 0 -12 -10 -21 -31 -25 -69 -15 -125 44 -101 109 10 28 10 29 -3 12 -26 -35 -15 -82 29 -119 21 -19 21 -19 -13 -13 -51 9 -78 31 -86 68 -4 18 -18 50 -31 70 -41 63 -154 106 -154 58 0 -64 73 -144 142 -155 21 -4 42 -14 47 -23 5 -9 15 -17 23 -18 7 0 22 -2 33 -2 18 -2 18 -3 2 -19 -16 -16 -19 -16 -28 -3 -7 11 -8 6 -3 -19 l6 -35 -32 27 c-17 15 -42 27 -55 27 -28 0 -55 -24 -55 -49 0 -25 25 -55 38 -47 19 12 14 36 -8 36 -22 0 -26 20 -8 38 30 30 92 1 107 -51 7 -25 9 -27 10 -9 1 25 4 26 32 11 11 -5 29 -7 39 -4 24 8 37 50 21 69 -9 11 -2 16 36 26 27 8 62 20 78 27 30 14 30 14 3 8 -35 -7 -36 3 -2 97 27 75 74 132 137 165 16 8 26 17 23 20 -3 3 7 22 23 42 32 41 65 101 58 107 -2 2 -12 -14 -22 -37z"
       id="path74"
       style="fill:#7a9489;fill-opacity:1" />
    <path
       d="M370 996 c0 -2 8 -10 18 -17 15 -13 16 -12 3 4 -13 16 -21 21 -21 13z"
       id="path75"
       style="fill:#7a9489;fill-opacity:1" />
    <path
       d="M286 899 c-39 -31 -34 -118 6 -93 8 5 6 11 -6 20 -28 20 -16 56 24 76 19 10 28 18 19 18 -9 0 -28 -9 -43 -21z"
       id="path76"
       style="fill:#7a9489;fill-opacity:1" />
    <path
       d="M6353 875 c7 -13 14 -20 15 -14 5 14 -6 39 -17 39 -5 0 -4 -11 2 -25z"
       id="path77"
       style="fill:#7a9489;fill-opacity:1" />
    <path
       d="M582 748 c-17 -17 -15 -48 2 -48 22 0 30 19 16 35 -11 13 -7 15 22 15 19 0 40 -6 48 -12 12 -11 12 -10 1 5 -15 20 -71 23 -89 5z"
       id="path78"
       style="fill:#7a9489;fill-opacity:1" />
    <path
       d="M5996 753 c27 -4 30 -7 26 -29 -3 -17 0 -24 12 -24 19 0 21 31 4 48 -7 7 -26 11 -42 10 l-31 -1 31 -4z"
       id="path79"
       style="fill:#7a9489;fill-opacity:1" />
    <path
       d="M682 695 c0 -16 2 -22 5 -12 2 9 2 23 0 30 -3 6 -5 -1 -5 -18z"
       id="path80"
       style="fill:#7a9489;fill-opacity:1" />
    <path
       d="M328 642 c-16 -9 -28 -21 -28 -26 0 -5 9 -1 21 10 11 10 41 21 67 25 l47 6 -40 1 c-22 1 -52 -6 -67 -16z"
       id="path81"
       style="fill:#7a9489;fill-opacity:1" />
    <path
       d="M6170 650 c-16 -5 -2 -6 35 -3 33 3 62 7 64 9 8 7 -74 2 -99 -6z"
       id="path82"
       style="fill:#7a9489;fill-opacity:1" />
    <path
       d="M6305 618 c19 -22 26 -40 23 -59 -3 -15 -1 -26 4 -23 22 14 -7 96 -38 108 -10 4 -6 -5 11 -26z"
       id="path83"
       style="fill:#7a9489;fill-opacity:1" />
    <path
       d="M6195 594 c-17 -17 -20 -61 -6 -83 6 -10 8 -1 4 26 -5 39 -5 41 21 36 19 -4 26 -1 26 10 0 22 -27 29 -45 11z"
       id="path84"
       style="fill:#7a9489;fill-opacity:1" />
    <path
       d="M284 575 c-16 -63 78 -121 132 -80 17 13 16 13 -12 3 -59 -22 -123 24 -110 78 4 13 4 24 1 24 -2 0 -7 -11 -11 -25z"
       id="path85"
       style="fill:#7a9489;fill-opacity:1" />
    <path
       d="M385 591 c-7 -13 19 -26 34 -17 5 3 12 0 15 -6 3 -7 5 -4 3 7 -2 22 -41 33 -52 16z"
       id="path86"
       style="fill:#7a9489;fill-opacity:1" />
    <path
       d="M6081 559 c1 -19 5 -45 9 -59 6 -16 7 -6 3 30 -7 63 -13 80 -12 29z"
       id="path87"
       style="fill:#7a9489;fill-opacity:1" />
    <path
       d="M435 539 c-4 -6 -5 -12 -2 -15 2 -3 7 2 10 11 7 17 1 20 -8 4z"
       id="path88"
       style="fill:#7a9489;fill-opacity:1" />
    <path
       d="M526 506 c-7 -34 -20 -45 -59 -47 -14 -1 -9 -4 11 -8 l33 -6 -38 -55 c-23 -33 -47 -56 -61 -58 -26 -4 -62 -47 -62 -74 0 -17 5 -19 28 -14 31 8 62 40 62 66 0 17 81 80 103 80 5 0 7 -14 3 -32 -3 -17 -3 -29 0 -25 3 3 9 21 13 39 5 23 14 34 31 39 24 7 24 7 3 8 -13 1 -37 -8 -55 -19 -50 -30 -60 -25 -36 18 12 20 23 39 25 42 2 2 13 -1 23 -8 11 -7 20 -8 20 -3 0 5 -9 13 -20 16 -17 6 -20 12 -14 41 3 19 4 34 1 34 -3 0 -8 -15 -11 -34z"
       id="path89"
       style="fill:#7a9489;fill-opacity:1" />
    <path
       d="M6296 505 c-11 -8 -15 -15 -9 -15 6 0 16 7 23 15 16 19 11 19 -14 0z"
       id="path90"
       style="fill:#7a9489;fill-opacity:1" />
    <path
       d="M6219 487 c5 -5 19 -7 32 -5 20 3 19 5 -9 9 -20 3 -29 2 -23 -4z"
       id="path91"
       style="fill:#7a9489;fill-opacity:1" />
    <path
       d="M5891 457 c0 -10 -16 -25 -33 -33 -23 -10 -25 -14 -10 -10 22 4 24 2 19 -32 l-5 -37 11 38 11 37 60 2 61 2 -52 3 c-44 3 -52 7 -56 26 -3 16 -5 17 -6 4z"
       id="path92"
       style="fill:#7a9489;fill-opacity:1" />
    <path
       d="M6065 460 c-4 -6 1 -7 11 -3 11 4 22 -1 30 -12 13 -18 14 -18 14 3 0 17 -6 22 -24 22 -14 0 -28 -4 -31 -10z"
       id="path93"
       style="fill:#7a9489;fill-opacity:1" />
    <path
       d="M6138 453 c6 -2 18 -2 25 0 6 3 1 5 -13 5 -14 0 -19 -2 -12 -5z"
       id="path94"
       style="fill:#7a9489;fill-opacity:1" />
    <path
       d="M6215 430 c58 -30 77 -48 114 -113 28 -49 66 -166 57 -175 -2 -1 -30 4 -64 12 -75 17 -154 60 -191 102 -29 33 -68 120 -58 130 8 8 59 -21 83 -48 12 -12 24 -35 28 -49 6 -28 70 -74 87 -64 26 17 -12 93 -51 102 -31 7 -60 31 -60 50 0 10 -6 12 -19 8 -20 -6 -71 13 -71 27 0 4 -15 8 -32 7 -29 -1 -30 -2 -9 -8 18 -5 28 -19 39 -56 30 -104 114 -176 246 -211 81 -22 90 -20 81 19 -4 17 -8 42 -10 55 -5 36 -78 172 -92 172 -7 0 -13 4 -13 8 0 10 -73 52 -91 52 -8 0 4 -9 26 -20z"
       id="path95"
       style="fill:#7a9489;fill-opacity:1" />
    <path
       d="M353 406 c-21 -19 -46 -48 -56 -65 -25 -43 -14 -39 14 5 12 20 40 49 62 65 22 16 35 29 29 29 -7 0 -29 -15 -49 -34z"
       id="path96"
       style="fill:#7a9489;fill-opacity:1" />
    <path
       d="M6120 410 c0 -5 5 -10 11 -10 5 0 7 5 4 10 -3 6 -8 10 -11 10 -2 0 -4 -4 -4 -10z"
       id="path97"
       style="fill:#7a9489;fill-opacity:1" />
    <path
       d="M5758 390 c-20 -11 -75 -57 -121 -104 -86 -84 -153 -126 -234 -145 -23 -6 -29 -9 -16 -10 35 -2 118 33 173 73 28 20 55 36 60 36 6 0 10 5 10 10 0 23 98 114 145 136 28 13 43 24 35 23 -8 0 -32 -9 -52 -19z"
       id="path98"
       style="fill:#7a9489;fill-opacity:1" />
    <path
       d="M900 364 c0 -5 21 -29 45 -53 25 -25 45 -53 45 -64 0 -10 4 -15 10 -12 5 3 25 -5 42 -18 50 -38 130 -75 174 -81 38 -6 38 -5 -7 8 -80 23 -147 67 -230 150 -43 43 -79 75 -79 70z"
       id="path99"
       style="fill:#7a9489;fill-opacity:1" />
    <path
       d="M638 353 c6 -2 18 -2 25 0 6 3 1 5 -13 5 -14 0 -19 -2 -12 -5z"
       id="path100"
       style="fill:#7a9489;fill-opacity:1" />
    <path
       d="M5924 337 c-28 -24 -26 -47 3 -47 11 0 14 6 9 25 -5 21 -2 26 26 34 25 7 27 9 11 10 -12 1 -34 -10 -49 -22z"
       id="path101"
       style="fill:#7a9489;fill-opacity:1" />
    <path
       d="M590 330 c-11 -11 -20 -28 -19 -37 0 -13 3 -11 10 6 5 13 17 30 27 37 9 7 14 14 10 14 -5 0 -17 -9 -28 -20z"
       id="path102"
       style="fill:#7a9489;fill-opacity:1" />
    <path
       d="M683 320 c-1 -20 2 -30 12 -30 24 0 28 21 9 41 -19 18 -19 18 -21 -11z"
       id="path103"
       style="fill:#7a9489;fill-opacity:1" />
    <path
       d="M762 302 c-1 -29 -7 -62 -12 -73 -17 -30 -68 -52 -109 -45 -25 4 -31 2 -21 -4 24 -15 62 -12 97 10 43 26 55 51 50 113 l-3 52 -2 -53z"
       id="path104"
       style="fill:#7a9489;fill-opacity:1" />
    <path
       d="M5851 303 c-2 -58 13 -90 51 -113 36 -21 74 -25 98 -10 10 6 4 8 -22 4 -25 -5 -45 -1 -67 12 -36 21 -42 33 -51 99 l-7 50 -2 -42z"
       id="path105"
       style="fill:#7a9489;fill-opacity:1" />
    <path
       d="M6035 313 c19 -40 19 -51 0 -87 -9 -16 -14 -31 -11 -33 2 -2 11 13 21 32 18 39 15 68 -10 100 -15 18 -15 17 0 -12z"
       id="path106"
       style="fill:#7a9489;fill-opacity:1" />
    <path
       d="M526 303 c-12 -36 -56 -76 -128 -114 -40 -21 -68 -39 -63 -39 6 0 42 17 80 38 47 26 80 52 99 80 16 23 27 44 24 48 -4 3 -9 -3 -12 -13z"
       id="path107"
       style="fill:#7a9489;fill-opacity:1" />
    <path
       d="M256 260 c-9 -22 -16 -46 -16 -53 1 -6 10 10 20 37 11 28 18 51 16 53 -2 2 -11 -14 -20 -37z"
       id="path108"
       style="fill:#7a9489;fill-opacity:1" />
    <path
       d="M1117 259 c18 -18 35 -31 37 -28 3 3 -12 18 -32 33 l-37 29 32 -34z"
       id="path109"
       style="fill:#7a9489;fill-opacity:1" />
    <path
       d="M5514 276 c-5 -6 -21 -19 -35 -28 -13 -9 -19 -17 -14 -17 13 -1 71 46 65 52 -3 3 -10 0 -16 -7z"
       id="path110"
       style="fill:#7a9489;fill-opacity:1" />
    <path
       d="M568 245 c2 -13 12 -30 21 -37 13 -10 14 -10 4 2 -7 8 -13 22 -13 31 0 10 -4 20 -9 23 -4 3 -6 -6 -3 -19z"
       id="path111"
       style="fill:#7a9489;fill-opacity:1" />
    <path
       d="M1180 220 c8 -5 20 -10 25 -10 6 0 3 5 -5 10 -8 5 -19 10 -25 10 -5 0 -3 -5 5 -10z"
       id="path112"
       style="fill:#7a9489;fill-opacity:1" />
    <path
       d="M5420 220 c-13 -8 -13 -10 2 -10 9 0 20 5 23 10 8 13 -5 13 -25 0z"
       id="path113"
       style="fill:#7a9489;fill-opacity:1" />
    <path
       d="M5621 219 c-2 -34 67 -66 84 -39 12 19 -6 32 -20 14 -15 -22 -42 -13 -55 18 -5 15 -9 17 -9 7z"
       id="path114"
       style="fill:#7a9489;fill-opacity:1" />
    <path
       d="M991 213 c-1 -7 -10 -17 -22 -23 -17 -9 -23 -8 -33 6 -9 12 -15 14 -20 6 -11 -18 2 -32 28 -32 30 0 60 23 53 41 -3 9 -6 9 -6 2z"
       id="path115"
       style="fill:#7a9489;fill-opacity:1" />
    <path
       d="M1235 200 c11 -5 29 -8 40 -8 16 0 15 2 -5 8 -34 11 -60 11 -35 0z"
       id="path116"
       style="fill:#7a9489;fill-opacity:1" />
    <path
       d="M5355 200 c-13 -5 -14 -9 -5 -9 8 0 24 4 35 9 13 5 14 9 5 9 -8 0 -24 -4 -35 -9z"
       id="path117"
       style="fill:#7a9489;fill-opacity:1" />
    <path
       d="M1970 190 c-9 -6 -134 -11 -305 -12 l-290 -2 295 -6 c162 -3 302 -9 311 -13 20 -10 76 10 63 23 -15 15 -58 21 -74 10z"
       id="path118"
       style="fill:#7a9489;fill-opacity:1" />
    <path
       d="M4595 186 c-24 -18 -15 -29 22 -27 16 1 180 5 365 9 185 4 339 9 341 12 3 3 -146 5 -331 5 -185 0 -346 4 -357 8 -13 5 -27 3 -40 -7z"
       id="path119"
       style="fill:#7a9489;fill-opacity:1" />
    <path
       d="M232 170 c0 -14 2 -19 5 -12 2 6 2 18 0 25 -3 6 -5 1 -5 -13z"
       id="path120"
       style="fill:#7a9489;fill-opacity:1" />
    <path
       d="M1318 183 c12 -2 30 -2 40 0 9 3 -1 5 -23 4 -22 0 -30 -2 -17 -4z"
       id="path121"
       style="fill:#7a9489;fill-opacity:1" />
    <path
       d="M250 140 c-34 -7 -34 -7 -5 -8 17 0 41 4 55 8 33 11 0 11 -50 0z"
       id="path122"
       style="fill:#7a9489;fill-opacity:1" />
    <path
       d="M1278 123 c12 -2 30 -2 40 0 9 3 -1 5 -23 4 -22 0 -30 -2 -17 -4z"
       id="path123"
       style="fill:#7a9489;fill-opacity:1" />
    <path
       d="M5308 123 c12 -2 30 -2 40 0 9 3 -1 5 -23 4 -22 0 -30 -2 -17 -4z"
       id="path124"
       style="fill:#7a9489;fill-opacity:1" />
    <path
       d="M1622 113 c147 -2 390 -2 540 0 150 1 30 2 -267 2 -297 0 -420 -1 -273 -2z"
       id="path125"
       style="fill:#7a9489;fill-opacity:1" />
    <path
       d="M4457 113 c150 -2 396 -2 545 0 150 1 28 2 -272 2 -300 0 -422 -1 -273 -2z"
       id="path126"
       style="fill:#7a9489;fill-opacity:1" />
  </g>
</svg>
